<?xml version="1.0" encoding="UTF-8" standalone="no"?>
<!-- Generator: Adobe Illustrator 21.0.0, SVG Export Plug-In . SVG Version: 6.00 Build 0)  -->

<svg
   version="1.1"
   id="Layer_1"
   x="0px"
   y="0px"
   viewBox="0 0 1286.8 285"
   xml:space="preserve"
   sodipodi:docname="logo_white.svg"
   inkscape:version="1.1.2 (b8e25be833, 2022-02-05)"
   width="1286.8"
   height="285"
   xmlns:inkscape="http://www.inkscape.org/namespaces/inkscape"
   xmlns:sodipodi="http://sodipodi.sourceforge.net/DTD/sodipodi-0.dtd"
   xmlns="http://www.w3.org/2000/svg"
   xmlns:svg="http://www.w3.org/2000/svg"
   xmlns:i="&amp;#38;ns_ai;"><defs
   id="defs39">
	
	
</defs><sodipodi:namedview
   id="namedview37"
   pagecolor="#ffffff"
   bordercolor="#666666"
   borderopacity="1.0"
   inkscape:pageshadow="2"
   inkscape:pageopacity="0.0"
   inkscape:pagecheckerboard="0"
   showgrid="false"
   inkscape:zoom="0.7275"
   inkscape:cx="580.06873"
   inkscape:cy="599.31271"
   inkscape:window-width="3840"
   inkscape:window-height="2054"
   inkscape:window-x="-11"
   inkscape:window-y="-11"
   inkscape:window-maximized="1"
   inkscape:current-layer="g32"
   width="1286.8001px" />
<style
   type="text/css"
   id="style2">
	.st0{fill:#FFFFFF;}
	.st1{fill-rule:evenodd;clip-rule:evenodd;fill:#FFFFFF;}
</style>
<g
   i:extraneous="self"
   id="g32">
		
		<g
   id="g30"
   transform="translate(-144.32989,-456.35739)">
			<g
   id="g24">
				<polygon
   class="st0"
   points="518,660.9 518,684 422.8,684 422.8,557.8 449,557.8 449,660.9 "
   id="polygon6" />
				<rect
   x="536"
   y="557.79999"
   class="st0"
   width="26.1"
   height="126.2"
   id="rect8" />
				<polygon
   class="st0"
   points="645.6,580.9 645.6,684 619.5,684 619.5,580.9 577,580.9 577,557.8 688,557.8 688,580.9 "
   id="polygon10" />
				<polygon
   class="st0"
   points="728.8,632.2 728.8,684 702.6,684 702.6,557.8 728.8,557.8 728.8,608.6 786.8,608.6 786.8,557.8 812.9,557.8 812.9,684 786.8,684 786.8,632.2 "
   id="polygon12" />
				<polygon
   class="st0"
   points="933.6,661.3 933.6,684 835.8,684 835.8,557.8 932.8,557.8 932.8,580.5 862,580.5 862,609.3 908.7,609.3 908.7,631.3 862,631.3 862,661.3 "
   id="polygon14" />
				<path
   class="st0"
   d="M 952.1,684 V 557.8 h 61.7 c 8.5,0 16.1,1.7 22.6,5 6.6,3.3 11.7,7.9 15.3,13.8 3.7,5.9 5.5,12.7 5.5,20.4 0,8.1 -2.2,15.1 -6.7,21.3 -4.4,6.1 -10.4,10.7 -17.8,13.7 l 27.9,52.1 h -29.2 l -24.7,-48.3 H 978.2 V 684 Z m 26.2,-69.8 h 33.2 c 5.9,0 10.6,-1.6 14.2,-4.7 3.5,-3.1 5.3,-7.2 5.3,-12.3 0,-5 -1.8,-9.1 -5.3,-12.3 -3.5,-3.1 -8.3,-4.7 -14.2,-4.7 h -33.2 z"
   id="path16" />
				<polygon
   class="st0"
   points="1099.4,557.8 1162.1,639.3 1162.1,557.8 1186.7,557.8 1186.7,684 1163.6,684 1099.2,599.6 1099.2,684 1074.5,684 1074.5,557.8 "
   id="polygon18" />
				<polygon
   class="st0"
   points="1307.3,661.3 1307.3,684 1209.6,684 1209.6,557.8 1306.6,557.8 1306.6,580.5 1235.7,580.5 1235.7,609.3 1282.4,609.3 1282.4,631.3 1235.7,631.3 1235.7,661.3 "
   id="polygon20" />
				<polygon
   class="st0"
   points="1386.4,580.9 1386.4,684 1360.3,684 1360.3,580.9 1317.7,580.9 1317.7,557.8 1428.8,557.8 1428.8,580.9 "
   id="polygon22" />
			</g>
			<g
   id="g28">
				<path
   class="st1"
   d="m 252.4,471.9 c -2.7,0 -4.9,-2.2 -4.9,-4.9 0,-2.7 2.2,-4.9 4.9,-4.9 46,0 86.2,29.7 100.2,72.8 0.8,2.6 -0.6,5.4 -3.2,6.2 -2.6,0.8 -5.4,-0.6 -6.2,-3.2 -12.7,-39.1 -49.1,-66 -90.8,-66 m 51.4,245.2 v 16 c 0,2.7 -2.2,4.9 -4.9,4.9 h -93 c -2.7,0 -4.9,-2.2 -4.9,-4.9 0,-2.7 2.2,-4.9 4.9,-4.9 H 294 v -6.1 h -88.1 c -2.7,0 -4.9,-2.2 -4.9,-4.9 v -16 c 0,-2.7 2.2,-4.9 4.9,-4.9 H 294 v -6.1 h -32.2 c -2.7,0 -4.9,-2.2 -4.9,-4.9 V 540 c 0,-1.4 0.6,-2.7 1.5,-3.6 l 15,-15 c -5.1,-10.2 2.3,-22.4 13.9,-22.4 13.8,0 20.7,16.7 11,26.5 -4.7,4.7 -11.9,5.9 -17.9,2.9 L 266.7,542 v 138.3 h 32.2 c 2.7,0 4.9,2.2 4.9,4.9 v 16 c 0,2.8 -2.3,4.9 -4.9,4.9 h -88.1 v 6.1 h 88.1 c 2.7,0 4.9,2.2 4.9,4.9 m -97.9,-26.9 c -2.7,0 -4.9,-2.2 -4.9,-4.9 0,-2.7 2.2,-4.9 4.9,-4.9 H 238 V 542 l -13.6,-13.6 c -10.2,5.1 -22.4,-2.3 -22.4,-13.9 0,-13.8 16.7,-20.7 26.5,-11 4.7,4.7 5.9,11.9 2.9,17.9 2,2 15,14.8 15.6,15.8 0.6,0.8 0.9,1.8 0.9,2.8 v 145.2 c 0,2.7 -2.2,4.9 -4.9,4.9 h -37.1 z m 85.3,-179.7 c -3.5,-3.5 -9.6,-1 -9.6,4 0,1.5 0.6,3 1.6,4 3.8,3.6 9.6,0.9 9.6,-4 0,-1.5 -0.6,-2.9 -1.6,-4 m 14.6,22.5 c 13.8,0 20.7,16.7 11,26.5 -4.7,4.7 -11.9,5.9 -17.9,2.9 L 285.3,576 v 65.4 c 0,2.7 -2.2,4.9 -4.9,4.9 -2.7,0 -4.9,-2.2 -4.9,-4.9 v -67.5 c 0,-1.3 0.5,-2.6 1.5,-3.5 l 15,-15 c -5.2,-10.3 2.2,-22.4 13.8,-22.4 m 4,11.5 c -3.5,-3.5 -9.6,-1 -9.6,4 0,1.5 0.6,3 1.6,4 v 0 c 3.5,3.5 9.6,1 9.6,-4 0,-1.6 -0.6,-3 -1.6,-4 m 14.6,22.4 c 13.8,0 20.7,16.7 11,26.5 -4.7,4.7 -11.9,5.9 -17.9,2.9 l -13.6,13.6 v 37.9 c 27.2,-17.4 44,-47.4 44,-80.5 0,-2.7 2.2,-4.9 4.9,-4.9 2.7,0 4.9,2.2 4.9,4.9 0,19.9 -5.6,38.6 -15.2,54.5 -9.9,16.3 -24.1,29.7 -41,38.7 -3.8,2.3 -7.6,-0.6 -7.6,-4.1 v -48.5 c 0,-1.3 0.5,-2.6 1.5,-3.5 l 15,-15 c -5,-10.3 2.4,-22.5 14,-22.5 m 3.9,11.5 c -3.5,-3.5 -9.6,-1 -9.6,4 0,1.6 0.6,2.9 1.6,4 3.3,3.4 9.6,1.2 9.6,-4 0.1,-1.5 -0.6,-2.9 -1.6,-4 M 180.4,566.9 c 11.5,0 19,12.2 13.9,22.4 2,2 15,14.8 15.6,15.8 0.6,0.8 0.9,1.8 0.9,2.8 v 48.5 c 0,3.5 -3.8,6.4 -7.6,4.1 -16.9,-8.9 -31.1,-22.4 -40.9,-38.7 -9.6,-15.9 -15.2,-34.6 -15.2,-54.5 0,-2.7 2.2,-4.9 4.9,-4.9 2.7,0 4.9,2.2 4.9,4.9 0,33 16.8,63 44,80.5 v -37.9 l -13.6,-13.6 c -10.2,5.1 -22.4,-2.3 -22.4,-13.9 0,-8.5 6.9,-15.5 15.5,-15.5 m 4,11.5 c -3.5,-3.5 -9.6,-1 -9.6,4 0,5.1 6.3,7.4 9.6,4 2.2,-2.3 2.2,-5.8 0,-8 M 199,533 c 11.5,0 19,12.2 13.9,22.4 2,2 15,14.8 15.6,15.8 0.6,0.8 0.9,1.8 0.9,2.8 v 67.5 c 0,2.7 -2.2,4.9 -4.9,4.9 -2.7,0 -4.9,-2.2 -4.9,-4.9 V 576 L 206,562.4 c -10.2,5.1 -22.4,-2.3 -22.4,-13.9 -0.1,-8.6 6.8,-15.5 15.4,-15.5 m 3.9,11.5 c -3.5,-3.5 -9.6,-1 -9.6,4 0,5 6.1,7.5 9.6,4 2.2,-2.3 2.2,-5.8 0,-8 m 18.6,-34 c -3.5,-3.5 -9.6,-1 -9.6,4 0,4.8 5.8,7.6 9.6,4 2.2,-2.1 2.2,-5.7 0,-8 m 3,-44.8 c 2.6,-0.7 5.3,0.8 6,3.5 0.7,2.6 -0.8,5.3 -3.5,6 -33.7,9.2 -59.9,36.5 -67.7,70.6 -0.6,2.7 -3.3,4.3 -5.9,3.7 -2.7,-0.6 -4.3,-3.3 -3.7,-5.9 8.7,-37.6 37.6,-67.7 74.8,-77.9"
   id="path26" />
			</g>
		</g>
	</g>

</svg>
