<?xml version="1.0" encoding="UTF-8" standalone="no"?>
<!-- Created with Inkscape (http://www.inkscape.org/) -->

<svg
   width="61mm"
   height="80mm"
   viewBox="0 0 61 80"
   version="1.1"
   id="svg185"
   inkscape:version="1.1.2 (b8e25be833, 2022-02-05)"
   sodipodi:docname="logo_black.svg"
   xmlns:inkscape="http://www.inkscape.org/namespaces/inkscape"
   xmlns:sodipodi="http://sodipodi.sourceforge.net/DTD/sodipodi-0.dtd"
   xmlns="http://www.w3.org/2000/svg"
   xmlns:svg="http://www.w3.org/2000/svg">
  <sodipodi:namedview
     id="namedview187"
     pagecolor="#ffffff"
     bordercolor="#666666"
     borderopacity="1.0"
     inkscape:pageshadow="2"
     inkscape:pageopacity="0.0"
     inkscape:pagecheckerboard="0"
     inkscape:document-units="mm"
     showgrid="false"
     inkscape:zoom="0.77771465"
     inkscape:cx="396.67505"
     inkscape:cy="560.61693"
     inkscape:window-width="3840"
     inkscape:window-height="2054"
     inkscape:window-x="-11"
     inkscape:window-y="-11"
     inkscape:window-maximized="1"
     inkscape:current-layer="layer1" />
  <defs
     id="defs182" />
  <g
     inkscape:label="Ebene 1"
     inkscape:groupmode="layer"
     id="layer1">
    <g
       id="g28"
       transform="matrix(0.26458333,0,0,0.26458333,-35.653696,-118.6189)">
      <path
         class="st1"
         d="m 252.4,471.9 c -2.7,0 -4.9,-2.2 -4.9,-4.9 0,-2.7 2.2,-4.9 4.9,-4.9 46,0 86.2,29.7 100.2,72.8 0.8,2.6 -0.6,5.4 -3.2,6.2 -2.6,0.8 -5.4,-0.6 -6.2,-3.2 -12.7,-39.1 -49.1,-66 -90.8,-66 m 51.4,245.2 v 16 c 0,2.7 -2.2,4.9 -4.9,4.9 h -93 c -2.7,0 -4.9,-2.2 -4.9,-4.9 0,-2.7 2.2,-4.9 4.9,-4.9 H 294 v -6.1 h -88.1 c -2.7,0 -4.9,-2.2 -4.9,-4.9 v -16 c 0,-2.7 2.2,-4.9 4.9,-4.9 H 294 v -6.1 h -32.2 c -2.7,0 -4.9,-2.2 -4.9,-4.9 V 540 c 0,-1.4 0.6,-2.7 1.5,-3.6 l 15,-15 c -5.1,-10.2 2.3,-22.4 13.9,-22.4 13.8,0 20.7,16.7 11,26.5 -4.7,4.7 -11.9,5.9 -17.9,2.9 L 266.7,542 v 138.3 h 32.2 c 2.7,0 4.9,2.2 4.9,4.9 v 16 c 0,2.8 -2.3,4.9 -4.9,4.9 h -88.1 v 6.1 h 88.1 c 2.7,0 4.9,2.2 4.9,4.9 m -97.9,-26.9 c -2.7,0 -4.9,-2.2 -4.9,-4.9 0,-2.7 2.2,-4.9 4.9,-4.9 H 238 V 542 l -13.6,-13.6 c -10.2,5.1 -22.4,-2.3 -22.4,-13.9 0,-13.8 16.7,-20.7 26.5,-11 4.7,4.7 5.9,11.9 2.9,17.9 2,2 15,14.8 15.6,15.8 0.6,0.8 0.9,1.8 0.9,2.8 v 145.2 c 0,2.7 -2.2,4.9 -4.9,4.9 h -37.1 z m 85.3,-179.7 c -3.5,-3.5 -9.6,-1 -9.6,4 0,1.5 0.6,3 1.6,4 3.8,3.6 9.6,0.9 9.6,-4 0,-1.5 -0.6,-2.9 -1.6,-4 m 14.6,22.5 c 13.8,0 20.7,16.7 11,26.5 -4.7,4.7 -11.9,5.9 -17.9,2.9 L 285.3,576 v 65.4 c 0,2.7 -2.2,4.9 -4.9,4.9 -2.7,0 -4.9,-2.2 -4.9,-4.9 v -67.5 c 0,-1.3 0.5,-2.6 1.5,-3.5 l 15,-15 c -5.2,-10.3 2.2,-22.4 13.8,-22.4 m 4,11.5 c -3.5,-3.5 -9.6,-1 -9.6,4 0,1.5 0.6,3 1.6,4 v 0 c 3.5,3.5 9.6,1 9.6,-4 0,-1.6 -0.6,-3 -1.6,-4 m 14.6,22.4 c 13.8,0 20.7,16.7 11,26.5 -4.7,4.7 -11.9,5.9 -17.9,2.9 l -13.6,13.6 v 37.9 c 27.2,-17.4 44,-47.4 44,-80.5 0,-2.7 2.2,-4.9 4.9,-4.9 2.7,0 4.9,2.2 4.9,4.9 0,19.9 -5.6,38.6 -15.2,54.5 -9.9,16.3 -24.1,29.7 -41,38.7 -3.8,2.3 -7.6,-0.6 -7.6,-4.1 v -48.5 c 0,-1.3 0.5,-2.6 1.5,-3.5 l 15,-15 c -5,-10.3 2.4,-22.5 14,-22.5 m 3.9,11.5 c -3.5,-3.5 -9.6,-1 -9.6,4 0,1.6 0.6,2.9 1.6,4 3.3,3.4 9.6,1.2 9.6,-4 0.1,-1.5 -0.6,-2.9 -1.6,-4 M 180.4,566.9 c 11.5,0 19,12.2 13.9,22.4 2,2 15,14.8 15.6,15.8 0.6,0.8 0.9,1.8 0.9,2.8 v 48.5 c 0,3.5 -3.8,6.4 -7.6,4.1 -16.9,-8.9 -31.1,-22.4 -40.9,-38.7 -9.6,-15.9 -15.2,-34.6 -15.2,-54.5 0,-2.7 2.2,-4.9 4.9,-4.9 2.7,0 4.9,2.2 4.9,4.9 0,33 16.8,63 44,80.5 v -37.9 l -13.6,-13.6 c -10.2,5.1 -22.4,-2.3 -22.4,-13.9 0,-8.5 6.9,-15.5 15.5,-15.5 m 4,11.5 c -3.5,-3.5 -9.6,-1 -9.6,4 0,5.1 6.3,7.4 9.6,4 2.2,-2.3 2.2,-5.8 0,-8 M 199,533 c 11.5,0 19,12.2 13.9,22.4 2,2 15,14.8 15.6,15.8 0.6,0.8 0.9,1.8 0.9,2.8 v 67.5 c 0,2.7 -2.2,4.9 -4.9,4.9 -2.7,0 -4.9,-2.2 -4.9,-4.9 V 576 L 206,562.4 c -10.2,5.1 -22.4,-2.3 -22.4,-13.9 -0.1,-8.6 6.8,-15.5 15.4,-15.5 m 3.9,11.5 c -3.5,-3.5 -9.6,-1 -9.6,4 0,5 6.1,7.5 9.6,4 2.2,-2.3 2.2,-5.8 0,-8 m 18.6,-34 c -3.5,-3.5 -9.6,-1 -9.6,4 0,4.8 5.8,7.6 9.6,4 2.2,-2.1 2.2,-5.7 0,-8 m 3,-44.8 c 2.6,-0.7 5.3,0.8 6,3.5 0.7,2.6 -0.8,5.3 -3.5,6 -33.7,9.2 -59.9,36.5 -67.7,70.6 -0.6,2.7 -3.3,4.3 -5.9,3.7 -2.7,-0.6 -4.3,-3.3 -3.7,-5.9 8.7,-37.6 37.6,-67.7 74.8,-77.9"
         id="path26" />
    </g>
  </g>
</svg>
